<svg width="141" height="28" viewBox="0 0 141 28" fill="none" xmlns="http://www.w3.org/2000/svg">
<path d="M23.2146 0.30542H21.7891C20.5673 0.30542 19.7527 0.916329 19.3455 2.13815L12.6255 21.3818L5.90546 2.13815C5.49818 0.916329 4.58182 0.30542 3.46182 0.30542H1.93455C0.814546 0.30542 0 1.11997 0 2.54542V25.8618C0 27.0836 0.712727 27.6945 1.83273 27.6945C3.05455 27.6945 3.76727 26.9818 3.76727 25.8618V6.82178L10.1818 25.76C10.5891 26.88 11.2 27.6945 12.6255 27.6945C14.1527 27.6945 14.6618 26.6763 14.9673 25.76L21.4836 6.82178V25.8618C21.4836 27.0836 22.1964 27.6945 23.4182 27.6945C24.64 27.6945 25.2509 27.0836 25.2509 25.8618V2.54542C25.2509 1.22178 24.4364 0.30542 23.2146 0.30542Z" fill="black"/>
<path d="M32.6836 0C31.4618 0 30.7491 0.712727 30.7491 1.83273V25.9636C30.7491 26.5745 30.9527 27.6945 32.6836 27.6945C33.9054 27.6945 34.6182 27.0836 34.6182 25.8618V1.83273C34.6182 0.712727 33.9054 0 32.6836 0Z" fill="black"/>
<path d="M54.2691 0.30542H42.9673C41.1346 0.30542 40.1164 1.3236 40.1164 3.25815V25.8618C40.1164 27.0836 40.8291 27.6945 42.0509 27.6945C43.2728 27.6945 43.9855 26.9818 43.9855 25.8618V4.47997C43.9855 4.17451 43.9855 4.17451 44.2909 4.17451H54.3709C58.24 4.07269 59.0546 5.59997 59.0546 7.94178V9.1636C59.0546 11.3018 58.1382 12.7272 53.4546 12.7272H48.8728C47.6509 12.7272 47.04 13.3381 47.04 14.56C47.04 15.7818 47.2437 16.1891 48.0582 17.0036L59.1564 27.2872C59.5637 27.6945 60.0728 27.8981 60.5819 27.8981C62.1091 27.8981 62.8219 27.0836 62.8219 26.3709C62.8219 25.8618 62.6182 25.4545 62.2109 25.0472L52.64 16.2909H54.4728C60.0728 16.2909 62.9237 13.9491 62.9237 9.26542V7.83996C62.9237 2.54542 60.2764 0.30542 54.2691 0.30542Z" fill="black"/>
<path d="M104.16 0.509155H102.633C95.0982 0.509155 91.4327 4.17461 91.4327 11.6073V16.8001C91.4327 24.3346 94.9964 27.8982 102.633 27.8982H104.16C111.695 27.8982 115.258 24.3346 115.258 16.8001V11.6073C115.258 3.97097 111.796 0.509155 104.16 0.509155ZM104.16 24.0292H102.633C97.44 24.0292 95.3018 21.891 95.3018 16.8001V11.6073C95.3018 6.61825 97.5418 4.37825 102.633 4.37825H104.16C109.251 4.37825 111.491 6.51643 111.491 11.6073V16.8001C111.491 21.7892 109.353 24.0292 104.16 24.0292Z" fill="black"/>
<path d="M85.1201 0.610962H73.9201C67.9128 0.610962 65.2655 2.85096 65.2655 8.14551V9.57096C65.2655 14.2546 68.1164 16.5964 73.7164 16.5964H75.5491L66.0801 25.251C65.6728 25.6582 65.4691 26.0655 65.4691 26.5746C65.4691 27.2873 66.1819 28.1019 67.7091 28.1019C68.2182 28.1019 68.7273 27.8982 69.1346 27.491L80.2328 17.2073C81.0473 16.3928 81.251 15.9855 81.251 14.7637C81.251 13.5419 80.6401 12.931 79.4182 12.931H74.7346C70.1528 12.931 69.1346 11.6073 69.1346 9.36732V8.24733C69.1346 5.90551 69.9491 4.37823 73.9201 4.37823H84.0001C84.3055 4.37823 84.3055 4.37823 84.3055 4.68369V26.0655C84.3055 27.2873 85.0182 27.8982 86.2401 27.8982C87.4619 27.8982 88.1746 27.2873 88.1746 26.0655V3.46187C88.0728 1.62914 86.9528 0.610962 85.1201 0.610962Z" fill="black"/>
<path d="M140.916 9.46914V8.14551C140.916 2.85096 138.371 0.610962 132.262 0.610962H120.96C119.127 0.610962 118.109 1.62914 118.109 3.56369V26.1673C118.109 27.3891 118.822 28.0001 120.044 28.0001C121.265 28.0001 121.978 27.2873 121.978 26.1673V4.78551C121.978 4.48005 121.978 4.48005 122.284 4.48005H132.364C136.335 4.48005 137.149 6.00733 137.149 8.34914V9.46914C137.149 11.6073 136.233 13.0328 131.549 13.0328H126.865C125.644 13.0328 125.033 13.6437 125.033 14.8655C125.033 16.0873 125.236 16.4946 126.051 17.3091L137.149 27.5928C137.556 28.0001 138.065 28.2037 138.575 28.2037C140.102 28.2037 140.815 27.3891 140.815 26.6764C140.815 26.1673 140.611 25.7601 140.204 25.3528L130.735 16.6982H132.567C138.065 16.4946 140.916 14.1528 140.916 9.46914Z" fill="black"/>
</svg>
